<svg xmlns="http://www.w3.org/2000/svg" width="16" height="16" viewBox="0 0 4.233 4.233"><path d="M310.25 230.032c-2.61.58-5.191 1.388-7.611 2.606.055 2.137.193 4.185.473 6.264-.94.603-1.928 1.12-2.805 1.824-.892.686-1.803 1.343-2.61 2.146a50 50 0 0 0-5.081-2.956c-1.897 2.041-3.67 4.244-5.118 6.709 1.138 1.787 3.017 3.926 4.148 5.327 0 0-1.942 6.668-1.91 9.79.16 14.811 12.116 26.287 26.517 26.116V278.8c-8.975.121-17.492-6.669-17.527-17.478-.097-8.707 7.475-17.007 17.251-16.921 10.505.28 17.112 8.486 17.139 17.355h9.033a25.8 25.8 0 0 0-1.816-9.743c1.306-1.644 3.342-3.863 4.29-5.39-1.448-2.464-3.222-4.667-5.119-6.708a50 50 0 0 0-5.08 2.956c-.808-.803-1.718-1.46-2.61-2.146-.878-.705-1.868-1.221-2.806-1.824.28-2.08.418-4.127.474-6.264-2.42-1.218-5.002-2.026-7.613-2.606-1.042 1.752-1.995 3.649-2.826 5.504-.984-.165-3.001-.237-3.001-.237-.993.011-1.981.072-2.966.237-.83-1.855-1.782-3.752-2.826-5.504" style="fill:gray;fill-opacity:1;stroke-width:.264583" transform="translate(-21.02 -16.84)scale(.0732)"/><text xml:space="preserve" x="301.245" y="276.459" style="font-style:normal;font-variant:normal;font-weight:400;font-stretch:normal;font-size:41.1598px;font-family:&quot;PT Serif&quot;;-inkscape-font-specification:&quot;PT Serif&quot;;writing-mode:lr-tb;direction:ltr;fill:#ffca5f;fill-opacity:1;stroke-width:2.81076" transform="translate(-21.02 -16.84)scale(.0732)"><tspan x="301.245" y="276.459" style="font-style:normal;font-variant:normal;font-weight:400;font-stretch:normal;font-size:41.1598px;font-family:&quot;PT Serif&quot;;-inkscape-font-specification:&quot;PT Serif&quot;;fill:#ffca5f;fill-opacity:1;stroke-width:2.81077">C</tspan></text></svg>