<svg xmlns="http://www.w3.org/2000/svg" width="16" height="16" viewBox="0 0 4.233 4.233"><path d="M289.189 230.032c-.191.042-.38.101-.557.19.004.157.014.307.034.459-.068.044-.14.082-.205.134-.065.05-.132.098-.191.157a4 4 0 0 0-.372-.217 3 3 0 0 0-.375.491c.084.131.221.288.304.39 0 0-.142.488-.14.717a1.92 1.92 0 0 0 1.941 1.912v-.664a1.255 1.255 0 0 1-1.283-1.279c-.007-.637.547-1.245 1.263-1.238a1.26 1.26 0 0 1 1.255 1.27h.661a1.9 1.9 0 0 0-.133-.713c.096-.12.245-.283.314-.395a3 3 0 0 0-.375-.49 4 4 0 0 0-.372.216c-.059-.06-.125-.107-.19-.157-.065-.052-.137-.09-.206-.134.02-.152.03-.302.035-.459a2.4 2.4 0 0 0-.558-.19 4 4 0 0 0-.206.403 1.371 1.371 0 0 0-.437 0 4 4 0 0 0-.207-.403m.014 1.818a.29.29 0 0 0-.291.293l.002.191h.58l.003-.185a.293.293 0 0 0-.295-.3zm.802 0a.29.29 0 0 0-.291.294l.002.191h.58l.003-.185a.293.293 0 0 0-.295-.3z" fill="#999999" transform="translate(-287.498 -230.032)"/></svg>