<svg xmlns="http://www.w3.org/2000/svg" width="16" height="16" viewBox="0 0 4.233 4.233"><path d="M310.25 230.032c-2.61.58-5.191 1.388-7.611 2.606.055 2.137.193 4.185.473 6.264-.94.603-1.928 1.12-2.805 1.824-.892.686-1.803 1.343-2.61 2.146a50 50 0 0 0-5.081-2.956c-1.897 2.041-3.67 4.244-5.118 6.709 1.138 1.787 3.017 3.926 4.148 5.327 0 0-1.942 6.668-1.91 9.79.16 14.811 12.116 26.287 26.517 26.116V278.8c-8.975.121-17.492-6.669-17.527-17.478-.097-8.707 7.475-17.007 17.251-16.921 10.505.28 17.112 8.486 17.139 17.355h9.033a25.8 25.8 0 0 0-1.816-9.743c1.306-1.644 3.342-3.863 4.29-5.39-1.448-2.464-3.222-4.667-5.119-6.708a50 50 0 0 0-5.08 2.956c-.808-.803-1.718-1.46-2.61-2.146-.878-.705-1.868-1.221-2.806-1.824.28-2.08.418-4.127.474-6.264-2.42-1.218-5.002-2.026-7.613-2.606-1.042 1.752-1.995 3.649-2.826 5.504-.984-.165-3.001-.237-3.001-.237-.993.011-1.981.072-2.966.237-.83-1.855-1.782-3.752-2.826-5.504" style="fill:gray;fill-opacity:1;stroke-width:.264583" transform="translate(-21.02 -16.84)scale(.0732)"/><path fill="#8da5f3" d="M311.224 251.98a3.05 3.05 0 1 0-4.163 4.164v9.976a3.05 3.05 0 1 0 4.163 4.164h1.937v-3.05h-1.937a3.05 3.05 0 0 0-1.113-1.114v-8.897l5.435 5.435h2.19v-2.19l-5.435-5.436h8.897a3.05 3.05 0 0 0 1.114 1.114v1.935h3.05v-1.935a3.05 3.05 0 1 0-4.164-4.165zm9.562 9.151v4.576h-4.575v3.05h4.575v4.575h3.05v-4.575h4.576v-3.05h-4.575v-4.576z" style="fill:#fc7f7f;fill-opacity:1;stroke-width:1.52511" transform="translate(-21.02 -16.84)scale(.0732)"/></svg>